<?xml version="1.0" encoding="UTF-8" standalone="no"?><!DOCTYPE svg PUBLIC "-//W3C//DTD SVG 1.1//EN" "http://www.w3.org/Graphics/SVG/1.1/DTD/svg11.dtd"><svg width="100%" height="100%" viewBox="0 0 522 516" version="1.1" xmlns="http://www.w3.org/2000/svg" xmlns:xlink="http://www.w3.org/1999/xlink" xml:space="preserve" xmlns:serif="http://www.serif.com/" style="fill-rule:evenodd;clip-rule:evenodd;stroke-linejoin:round;stroke-miterlimit:2;"><path d="M521.499,10.307c0,-5.689 -4.619,-10.307 -10.308,-10.307l-500.884,0c-5.689,0 -10.307,4.618 -10.307,10.307l0,494.743c0,5.688 4.618,10.307 10.307,10.307l500.884,0c5.689,0 10.308,-4.619 10.308,-10.307l0,-494.743Zm-460.61,44.975l0,364.36c0,0 59.268,-191.95 102.134,-194.629c22.208,-1.388 73.516,70.965 74.775,124.972c2.41,8.145 5.952,9.619 11.379,0c0,0 58.19,-233.083 109.093,-233.083c50.904,0 120.561,108.111 120.561,108.111l0,-169.731l-417.942,0Z" style="fill:#fff;"/></svg>