<?xml version="1.0" encoding="UTF-8" standalone="no"?><!DOCTYPE svg PUBLIC "-//W3C//DTD SVG 1.1//EN" "http://www.w3.org/Graphics/SVG/1.1/DTD/svg11.dtd"><svg width="100%" height="100%" viewBox="0 0 531 531" version="1.1" xmlns="http://www.w3.org/2000/svg" xmlns:xlink="http://www.w3.org/1999/xlink" xml:space="preserve" xmlns:serif="http://www.serif.com/" style="fill-rule:evenodd;clip-rule:evenodd;stroke-linejoin:round;stroke-miterlimit:2;"><path d="M9.147,229.421c-5.251,-0.76 -9.147,-5.261 -9.147,-10.566c0,-34.509 0,-156.158 0,-201.579c0,-3.701 1.916,-7.137 5.064,-9.083c3.147,-1.945 7.078,-2.122 10.388,-0.467c76.225,38.112 411.887,205.943 495.869,247.934c3.617,1.809 5.902,5.506 5.902,9.55c0,4.044 -2.285,7.741 -5.902,9.55c-83.982,41.99 -419.644,209.821 -495.869,247.934c-3.31,1.655 -7.241,1.478 -10.388,-0.467c-3.148,-1.946 -5.064,-5.382 -5.064,-9.083c0,-44.159 0,-160.032 0,-193.389c0,-5.245 3.811,-9.714 8.991,-10.542c29.539,-4.724 125.551,-20.077 192.722,-30.818c5.209,-0.833 9.029,-5.346 8.99,-10.622c-0.039,-5.275 -3.925,-9.731 -9.146,-10.487c-67.046,-9.71 -162.714,-23.564 -192.41,-27.865Z" style="fill:#fff;"/></svg>