<?xml version="1.0" encoding="UTF-8" standalone="no"?><!DOCTYPE svg PUBLIC "-//W3C//DTD SVG 1.1//EN" "http://www.w3.org/Graphics/SVG/1.1/DTD/svg11.dtd"><svg width="100%" height="100%" viewBox="0 0 816 817" version="1.1" xmlns="http://www.w3.org/2000/svg" xmlns:xlink="http://www.w3.org/1999/xlink" xml:space="preserve" xmlns:serif="http://www.serif.com/" style="fill-rule:evenodd;clip-rule:evenodd;stroke-linejoin:round;stroke-miterlimit:2;"><path d="M268.704,69.619l-0.266,-35.315c-0.135,-17.913 14.298,-32.565 32.211,-32.7l212.796,-1.603c17.913,-0.135 32.565,14.298 32.7,32.211l0.336,44.519l30.007,-30.007c12.667,-12.667 33.234,-12.667 45.901,0l150.474,150.474c12.667,12.667 12.667,33.234 0,45.9l-28.971,28.971l38.91,0c17.913,0 32.456,14.543 32.456,32.457l0,212.802c0,17.914 -14.543,32.457 -32.456,32.457l-40.971,0l27.513,27.513c12.667,12.666 12.667,33.234 0,45.9l-150.474,150.475c-12.667,12.666 -33.234,12.666 -45.901,0l-28.97,-28.971l0,38.909c0,17.913 -14.544,32.457 -32.457,32.457l-212.803,0c-17.913,0 -32.456,-14.544 -32.456,-32.457l0,-40.97l-27.513,27.513c-12.667,12.666 -33.234,12.666 -45.901,0l-150.474,-150.475c-12.666,-12.666 -12.666,-33.234 0,-45.9l28.971,-28.971l-38.909,0c-17.914,0 -32.457,-14.543 -32.457,-32.456l0,-212.803c0,-17.913 14.543,-32.457 32.457,-32.457l40.97,0l-27.513,-27.513c-12.666,-12.666 -12.666,-33.233 0,-45.9l150.474,-150.474c12.667,-12.667 33.234,-12.667 45.901,0l26.415,26.414Zm135.948,108.425c130.617,0 236.662,106.044 236.662,236.662c0,130.617 -106.045,236.662 -236.662,236.662c-130.617,0 -236.662,-106.045 -236.662,-236.662c0,-130.618 106.045,-236.662 236.662,-236.662Z" style="fill:#fff;"/></svg>